# xmcd
# 
# Track frame offsets:
#     150
#     5260
#     21445
#     35782
#     53089
#     77422
#     100858
#     117201
# 
# Disc length: 1780
# 
# Revision: 0
# Processed by: cddbd v1.5.2PL0 Copyright (c) Steve Scherf et al.
# Submitted via: fre:ac v1.0.17
# 
DISCID=5806f208
DTITLE=I Love Rich - Respect the Rich
DYEAR=2013
DGENRE=Heavy Metal
TTITLE0=Respect the Rich (intro)
TTITLE1=(You're So Hot) I'm Gonna Fuck You With The Lights On
TTITLE2=Wake Up, Let Me Rock You
TTITLE3=We're Here to Save Rock and Roll
TTITLE4=Fight the Fire
TTITLE5=If You Don't Take Your Clothes Off, Tonight's Gonna Suck
TTITLE6=(You're So Hot) I'm Gonna Fuck You With The Lights On (rock en espanol version)
TTITLE7=(You're So Hot) I'm Gonna Fuck You With The Lights On (clean radio version)
EXTD=
EXTT0=
EXTT1=
EXTT2=
EXTT3=
EXTT4=
EXTT5=
EXTT6=
EXTT7=
PLAYORDER=
